<svg data-name="Ebene 1" xmlns="http://www.w3.org/2000/svg" viewBox="0 0 199 56"><defs><clipPath id="a" transform="translate(-389 -576)"><path fill="none" d="M389 576h199v56H389z"/></clipPath></defs><title>bafang-logo</title><g clip-path="url(#a)"><path d="M171 0H28a28 28 0 0 0 0 56h143a28 28 0 0 0 0-56" fill="#eb6608"/><path d="M164.39 40.24a12.26 12.26 0 0 1-12.58-12.5 12.57 12.57 0 0 1 12.66-12.51 12.42 12.42 0 0 1 8.18 2.63 2.19 2.19 0 0 1 .43 3 2.06 2.06 0 0 1-2.87.52 9.37 9.37 0 0 0-5.82-2 8.09 8.09 0 0 0-8.08 8.19c0 5 3.55 8.47 8.15 8.47a8.77 8.77 0 0 0 4.72-1.29V30h-4a2 2 0 0 1 0-3.91h8.43v10.76a14.27 14.27 0 0 1-9.22 3.42M146.81 38a2.3 2.3 0 0 1-4.6 0V25.69c0-3.3-2.27-6.08-5.66-6.08s-5.66 2.78-5.66 6.08V38a2.3 2.3 0 0 1-4.59 0V25.45a10.28 10.28 0 0 1 10.33-10.22 10.15 10.15 0 0 1 10.18 10.22zM115.9 27.32h-12.68v-1.24c0-3.68 2.35-6.67 6.34-6.67s6.34 3 6.34 6.67zm-6.26-12.09A10.85 10.85 0 0 0 98.78 26v12a2.22 2.22 0 0 0 4.44 0v-6.84h12.68V38a2.22 2.22 0 0 0 4.43 0V26a10.71 10.71 0 0 0-10.69-10.78M93.57 20H83v6.93h9.22a1.89 1.89 0 0 1 1.93 1.93 1.93 1.93 0 0 1-1.93 1.94H83V38a2.22 2.22 0 0 1-4.43 0V15.87h14.95a2 2 0 0 1 2.1 2 2.05 2.05 0 0 1-2.05 2.06m-25.43 7.33H55.46v-1.24c0-3.68 2.35-6.67 6.34-6.67s6.34 3 6.34 6.67zm-6.26-12.09A10.85 10.85 0 0 0 51 26v12a2.22 2.22 0 0 0 4.44 0v-6.84h12.68V38a2.22 2.22 0 0 0 4.44 0V26a10.72 10.72 0 0 0-10.7-10.78m-23.69 20.5h-8v-6.3h8.09a3 3 0 0 1 3.31 3.08 3.23 3.23 0 0 1-3.38 3.23m-8-16h7.54a3 3 0 0 1 3.17 3 3 3 0 0 1-3.24 3h-7.47zm12.53 7.4a5.66 5.66 0 0 0 2.59-4.52c0-4-3.07-6.74-7.35-6.74h-12.1v23.71h12.49c4.11 0 7.63-3 7.63-7.11a5.87 5.87 0 0 0-3.26-5.34" fill="#fff"/></g></svg>